<svg width="1600" height="1000" viewBox="0 0 1600 1000" fill="none" xmlns="http://www.w3.org/2000/svg">
  <rect width="1600" height="1000" fill="#050608"/>
  <defs>
    <radialGradient id="bgGlow" cx="0" cy="0" r="1" gradientUnits="userSpaceOnUse" gradientTransform="translate(786 460) rotate(90) scale(520 760)">
      <stop stop-color="#7f1d1d" stop-opacity="0.55"/>
      <stop offset="0.45" stop-color="#111827" stop-opacity="0.35"/>
      <stop offset="1" stop-color="#050608" stop-opacity="0"/>
    </radialGradient>
    <linearGradient id="trackMetal" x1="240" y1="235" x2="1360" y2="760" gradientUnits="userSpaceOnUse">
      <stop stop-color="#f8fafc"/>
      <stop offset="0.18" stop-color="#94a3b8"/>
      <stop offset="0.45" stop-color="#e2e8f0"/>
      <stop offset="0.7" stop-color="#64748b"/>
      <stop offset="1" stop-color="#f8fafc"/>
    </linearGradient>
    <linearGradient id="routeRed" x1="248" y1="550" x2="1324" y2="462" gradientUnits="userSpaceOnUse">
      <stop stop-color="#fb7185"/>
      <stop offset="0.36" stop-color="#ef4444"/>
      <stop offset="0.72" stop-color="#f97316"/>
      <stop offset="1" stop-color="#f8fafc"/>
    </linearGradient>
    <filter id="softGlow" x="-20%" y="-20%" width="140%" height="140%">
      <feGaussianBlur stdDeviation="14" result="blur"/>
      <feMerge>
        <feMergeNode in="blur"/>
        <feMergeNode in="SourceGraphic"/>
      </feMerge>
    </filter>
    <filter id="redGlow" x="-30%" y="-30%" width="160%" height="160%">
      <feGaussianBlur stdDeviation="18" result="blur"/>
      <feMerge>
        <feMergeNode in="blur"/>
        <feMergeNode in="SourceGraphic"/>
      </feMerge>
    </filter>
    <pattern id="grid" width="80" height="80" patternUnits="userSpaceOnUse">
      <path d="M80 0H0V80" stroke="#ffffff" stroke-opacity="0.045" stroke-width="2"/>
    </pattern>
  </defs>
  <rect width="1600" height="1000" fill="url(#bgGlow)"/>
  <rect width="1600" height="1000" fill="url(#grid)"/>
  <g opacity="0.45">
    <path d="M72 870H1528" stroke="#94a3b8" stroke-opacity="0.16" stroke-width="2"/>
    <path d="M112 132H1488" stroke="#94a3b8" stroke-opacity="0.12" stroke-width="2"/>
    <path d="M160 156L330 292L210 410L350 534L202 700L400 852" stroke="#ef4444" stroke-opacity="0.12" stroke-width="12"/>
    <path d="M1430 150L1248 292L1392 420L1210 596L1374 760L1202 888" stroke="#e2e8f0" stroke-opacity="0.12" stroke-width="10"/>
  </g>
  <g>
    <path d="M250 555C285 312 522 198 748 274C938 338 968 472 1112 462C1255 452 1372 342 1398 492C1429 669 1187 805 964 720C780 650 754 520 610 540C448 562 368 774 250 682C206 648 230 596 250 555Z" stroke="#020617" stroke-width="104" stroke-linecap="round" stroke-linejoin="round"/>
    <path d="M250 555C285 312 522 198 748 274C938 338 968 472 1112 462C1255 452 1372 342 1398 492C1429 669 1187 805 964 720C780 650 754 520 610 540C448 562 368 774 250 682C206 648 230 596 250 555Z" stroke="url(#trackMetal)" stroke-width="78" stroke-linecap="round" stroke-linejoin="round"/>
    <path d="M250 555C285 312 522 198 748 274C938 338 968 472 1112 462C1255 452 1372 342 1398 492C1429 669 1187 805 964 720C780 650 754 520 610 540C448 562 368 774 250 682C206 648 230 596 250 555Z" stroke="#050608" stroke-width="44" stroke-linecap="round" stroke-linejoin="round"/>
    <path d="M250 555C285 312 522 198 748 274C938 338 968 472 1112 462C1255 452 1372 342 1398 492C1429 669 1187 805 964 720C780 650 754 520 610 540C448 562 368 774 250 682C206 648 230 596 250 555Z" stroke="url(#routeRed)" stroke-width="12" stroke-linecap="round" stroke-linejoin="round" filter="url(#redGlow)"/>
    <path d="M250 555C285 312 522 198 748 274C938 338 968 472 1112 462C1255 452 1372 342 1398 492C1429 669 1187 805 964 720C780 650 754 520 610 540C448 562 368 774 250 682C206 648 230 596 250 555Z" stroke="#f8fafc" stroke-opacity="0.55" stroke-width="3" stroke-dasharray="22 28" stroke-linecap="round"/>
  </g>
  <g filter="url(#softGlow)">
    <path d="M338 606L482 646" stroke="#22d3ee" stroke-width="12" stroke-linecap="round"/>
    <path d="M1058 718L1192 688" stroke="#22d3ee" stroke-width="12" stroke-linecap="round"/>
    <path d="M758 276L898 340" stroke="#facc15" stroke-width="12" stroke-linecap="round"/>
    <path d="M1264 414L1370 486" stroke="#facc15" stroke-width="12" stroke-linecap="round"/>
    <path d="M578 534L648 524" stroke="#ef4444" stroke-width="16" stroke-linecap="round"/>
  </g>
  <g opacity="0.9">
    <rect x="1234" y="606" width="168" height="72" rx="12" fill="#111827" stroke="#f8fafc" stroke-opacity="0.28" stroke-width="3"/>
    <rect x="1256" y="626" width="42" height="32" fill="#ef4444" fill-opacity="0.8"/>
    <rect x="1312" y="626" width="68" height="32" fill="#f8fafc" fill-opacity="0.2"/>
    <text x="1260" y="705" fill="#f8fafc" font-family="Arial, sans-serif" font-size="24" font-weight="700">PIT</text>
  </g>
  <g>
    <path d="M224 526L308 548" stroke="#f8fafc" stroke-width="8"/>
    <path d="M232 554L316 576" stroke="#f8fafc" stroke-width="8"/>
    <path d="M240 582L324 604" stroke="#f8fafc" stroke-width="8"/>
    <text x="172" y="504" fill="#f8fafc" font-family="Arial, sans-serif" font-size="28" font-weight="700">START / FINISH</text>
  </g>
  <text x="88" y="86" fill="#f8fafc" fill-opacity="0.92" font-family="Arial, sans-serif" font-size="42" font-weight="800">HYPER RACING TRACK MAP</text>
  <text x="90" y="126" fill="#fb7185" font-family="Arial, sans-serif" font-size="20" font-weight="700" letter-spacing="5">NEON CITY GRAND CIRCUIT</text>
</svg>
